<svg width="55" height="68" viewBox="0 0 55 68" fill="none" xmlns="http://www.w3.org/2000/svg">
<path d="M10.0042 57.9253C4.68477 52.7675 3.69514 44.5594 7.26226 38.961L26.8491 8.22089C29.4667 4.11287 34.9229 2.83489 39.4282 5.70599C44.5975 9.00087 46.3699 15.8651 43.4398 20.4638L23.5017 51.755C22.0468 54.0385 19.1092 54.9047 16.5019 53.5459C12.9946 51.7196 11.7082 47.296 13.5636 44.3842L31.6141 16.0553C32.1677 15.1864 33.3504 15.0455 34.2536 15.7405C35.1572 16.4357 35.4412 17.7052 34.8876 18.5741L16.837 46.9031C16.2834 47.7719 16.567 49.0411 17.4706 49.7364C18.3742 50.4317 19.5569 50.2908 20.1105 49.4219L40.0483 18.1311C41.5035 15.8472 41.2395 12.5175 39.1854 10.2895C36.4242 7.29226 32.2016 7.47688 30.3463 10.3887L10.5136 41.5147C7.89626 45.6223 8.6696 51.6938 12.6649 55.3643C17.2516 59.5735 23.7266 59.0584 26.657 54.4593L44.7076 26.1304C45.2612 25.2615 46.4439 25.1206 47.3474 25.8159C48.2506 26.5108 48.5346 27.7803 47.981 28.6492L29.9305 56.9782C25.7557 63.5303 16.4397 64.163 10.0042 57.9253Z" fill="white"/>
</svg>
