<svg width="60" height="60" viewBox="0 0 60 60" fill="none" xmlns="http://www.w3.org/2000/svg">
<path d="M42.6091 36.8543C42.0717 36.373 41.2461 36.42 40.7674 36.9561C38.0465 39.9965 34.123 41.7391 30 41.7391C25.8783 41.7391 21.9535 39.9965 19.2326 36.9561C18.7513 36.42 17.9283 36.373 17.3909 36.8543C16.8535 37.3343 16.8091 38.1587 17.2891 38.6961C20.5043 42.2883 25.1374 44.3478 30 44.3478C34.8639 44.3478 39.497 42.287 42.7109 38.6961C43.1909 38.1587 43.1452 37.3343 42.6091 36.8543Z" fill="white"/>
<path d="M30 0C13.4583 0 0 13.4583 0 30C0 46.5417 13.4583 60 30 60C46.5417 60 60 46.5417 60 30C60 13.4583 46.5417 0 30 0ZM30 57.3913C14.8957 57.3913 2.6087 45.1043 2.6087 30C2.6087 14.8957 14.8957 2.6087 30 2.6087C45.1043 2.6087 57.3913 14.8957 57.3913 30C57.3913 45.1043 45.1043 57.3913 30 57.3913Z" fill="white"/>
<path d="M40.4348 20.8696C36.8387 20.8696 33.9131 23.7952 33.9131 27.3913C33.9131 28.1113 34.4974 28.6957 35.2174 28.6957C35.9374 28.6957 36.5218 28.1113 36.5218 27.3913C36.5218 25.2339 38.2774 23.4783 40.4348 23.4783C42.5922 23.4783 44.3478 25.2339 44.3478 27.3913C44.3478 28.1113 44.9322 28.6957 45.6522 28.6957C46.3722 28.6957 46.9565 28.1113 46.9565 27.3913C46.9565 23.7952 44.0309 20.8696 40.4348 20.8696Z" fill="white"/>
<path d="M23.4783 27.3913C23.4783 28.1113 24.0626 28.6957 24.7826 28.6957C25.5026 28.6957 26.087 28.1113 26.087 27.3913C26.087 23.7952 23.1613 20.8696 19.5652 20.8696C15.9691 20.8696 13.0435 23.7952 13.0435 27.3913C13.0435 28.1113 13.6278 28.6957 14.3478 28.6957C15.0678 28.6957 15.6522 28.1113 15.6522 27.3913C15.6522 25.2339 17.4078 23.4783 19.5652 23.4783C21.7226 23.4783 23.4783 25.2339 23.4783 27.3913Z" fill="white"/>
</svg>
