<svg width="60" height="51" viewBox="0 0 60 51" fill="none" xmlns="http://www.w3.org/2000/svg">
<path d="M0 5C0 3.89543 0.895431 3 2 3H23V7H2C0.89543 7 0 6.10457 0 5Z" fill="white"/>
<path d="M31 3H58C59.1046 3 60 3.89543 60 5C60 6.10457 59.1046 7 58 7H31V3Z" fill="white"/>
<path fill-rule="evenodd" clip-rule="evenodd" d="M27 10C29.7614 10 32 7.76142 32 5C32 2.23858 29.7614 0 27 0C24.2386 0 22 2.23858 22 5C22 7.76142 24.2386 10 27 10ZM27 8C28.6569 8 30 6.65685 30 5C30 3.34315 28.6569 2 27 2C25.3431 2 24 3.34315 24 5C24 6.65685 25.3431 8 27 8Z" fill="white"/>
<path d="M0 26C0 24.8954 0.895431 24 2 24H38V28H2C0.89543 28 0 27.1046 0 26Z" fill="white"/>
<path d="M46 24H58C59.1046 24 60 24.8954 60 26C60 27.1046 59.1046 28 58 28H46V24Z" fill="white"/>
<path fill-rule="evenodd" clip-rule="evenodd" d="M42 31C44.7614 31 47 28.7614 47 26C47 23.2386 44.7614 21 42 21C39.2386 21 37 23.2386 37 26C37 28.7614 39.2386 31 42 31ZM42 29C43.6569 29 45 27.6569 45 26C45 24.3431 43.6569 23 42 23C40.3431 23 39 24.3431 39 26C39 27.6569 40.3431 29 42 29Z" fill="white"/>
<path d="M60 46C60 47.1046 59.1046 48 58 48L22 48V44L58 44C59.1046 44 60 44.8954 60 46Z" fill="white"/>
<path d="M14 48H2C0.895431 48 0 47.1046 0 46C0 44.8954 0.895431 44 2 44H14V48Z" fill="white"/>
<path fill-rule="evenodd" clip-rule="evenodd" d="M18 41C15.2386 41 13 43.2386 13 46C13 48.7614 15.2386 51 18 51C20.7614 51 23 48.7614 23 46C23 43.2386 20.7614 41 18 41ZM18 43C16.3431 43 15 44.3431 15 46C15 47.6569 16.3431 49 18 49C19.6569 49 21 47.6569 21 46C21 44.3431 19.6569 43 18 43Z" fill="white"/>
</svg>
