<svg width="63" height="60" viewBox="0 0 63 60" fill="none" xmlns="http://www.w3.org/2000/svg">
<path d="M31.5 60C30.6031 60 29.7384 59.6522 29.0645 59.0203C26.5195 56.6381 24.0658 54.3994 21.9009 52.4246L21.8898 52.4143C15.5428 46.6244 10.062 41.6242 6.24847 36.6986C1.98557 31.1922 0 25.9713 0 20.2677C0 14.7263 1.77505 9.61393 4.99782 5.87178C8.25904 2.08538 12.7339 0 17.5995 0C21.2362 0 24.5666 1.23075 27.4981 3.65777C28.9775 4.88286 30.3186 6.38219 31.5 8.13107C32.6819 6.38219 34.0225 4.88286 35.5024 3.65777C38.4339 1.23075 41.7643 0 45.4009 0C50.2661 0 54.7414 2.08538 58.0027 5.87178C61.2254 9.61393 63 14.7263 63 20.2677C63 25.9713 61.0149 31.1922 56.752 36.6981C52.9385 41.6242 47.4581 46.6238 41.1121 52.4133C38.9434 54.3911 36.4858 56.6334 33.935 59.0214C33.2616 59.6522 32.3964 60 31.5 60V60ZM17.5995 3.95054C13.7769 3.95054 10.2653 5.58364 7.71062 8.54938C5.11798 11.5599 3.68996 15.7214 3.68996 20.2677C3.68996 25.0647 5.35542 29.3548 9.08961 34.178C12.6988 38.8401 18.0672 43.7374 24.283 49.4079L24.2945 49.4182C26.4676 51.4007 28.9309 53.6482 31.4947 56.0479C34.0739 53.6435 36.5411 51.3925 38.7184 49.4069C44.9337 43.7363 50.3017 38.8401 53.9109 34.178C57.6446 29.3548 59.31 25.0647 59.31 20.2677C59.31 15.7214 57.882 11.5599 55.2894 8.54938C52.7352 5.58364 49.2231 3.95054 45.4009 3.95054C42.6007 3.95054 40.0296 4.90344 37.7595 6.78249C35.7365 8.45779 34.3272 10.5756 33.501 12.0574C33.0761 12.8194 32.3282 13.2743 31.5 13.2743C30.6718 13.2743 29.9239 12.8194 29.499 12.0574C28.6733 10.5756 27.264 8.45779 25.2405 6.78249C22.9704 4.90344 20.3993 3.95054 17.5995 3.95054V3.95054Z" fill="white"/>
</svg>
