<svg width="60" height="60" viewBox="0 0 60 60" fill="none" xmlns="http://www.w3.org/2000/svg">
<path d="M51.0938 7.03125H35.2734V5.27344C35.2734 2.36566 32.9078 0 30 0C27.0922 0 24.7266 2.36566 24.7266 5.27344V7.03125H8.90625C6.00363 7.03125 3.63281 9.39645 3.63281 12.3047V54.7266C3.63281 57.63 5.99883 60 8.90625 60H51.0938C53.9962 60 56.3672 57.635 56.3672 54.7266V12.3047C56.3672 9.40125 54.0012 7.03125 51.0938 7.03125ZM28.2422 5.27344C28.2422 4.30418 29.0307 3.51562 30 3.51562C30.9693 3.51562 31.7578 4.30418 31.7578 5.27344V7.03125H28.2422V5.27344ZM50.3657 10.5469L46.85 14.0625H13.15L9.63434 10.5469C10.6893 10.5469 49.1805 10.5469 50.3657 10.5469ZM34.7563 41.6749L40.5469 35.8843L45.8203 41.1578V49.4531H41.3604L34.7563 41.6749ZM36.7485 49.4531H14.1797V35.2205L19.4468 29.0755L36.7485 49.4531ZM41.7898 32.1554C41.1034 31.4689 39.9904 31.4689 39.3039 32.1554L32.4732 38.9861L20.793 25.2294C20.1041 24.4181 18.8338 24.3885 18.1185 25.2232L14.1797 29.8186V17.5781H45.8203V36.186L41.7898 32.1554ZM7.14844 53.9985V13.0328L10.6641 16.5484V50.4829L7.14844 53.9985ZM9.63434 56.4844L13.15 52.9688C14.3618 52.9688 46.0635 52.9688 46.85 52.9688L50.3657 56.4844H9.63434ZM52.8516 53.9985L49.3359 50.4829V16.5484L52.8516 13.0328V53.9985Z" fill="white"/>
<path d="M33.5156 21.0938C30.6079 21.0938 28.2422 23.4594 28.2422 26.3672C28.2422 29.275 30.6079 31.6406 33.5156 31.6406C36.4234 31.6406 38.7891 29.275 38.7891 26.3672C38.7891 23.4594 36.4234 21.0938 33.5156 21.0938ZM33.5156 28.125C32.5464 28.125 31.7578 27.3364 31.7578 26.3672C31.7578 25.3979 32.5464 24.6094 33.5156 24.6094C34.4849 24.6094 35.2734 25.3979 35.2734 26.3672C35.2734 27.3364 34.4849 28.125 33.5156 28.125Z" fill="white"/>
</svg>
