<svg width="16" height="60" viewBox="0 0 16 60" fill="none" xmlns="http://www.w3.org/2000/svg">
<path fill-rule="evenodd" clip-rule="evenodd" d="M8 16C12.4183 16 16 12.4183 16 8C16 3.58172 12.4183 0 8 0C3.58172 0 0 3.58172 0 8C0 12.4183 3.58172 16 8 16ZM8 13C10.7614 13 13 10.7614 13 8C13 5.23858 10.7614 3 8 3C5.23858 3 3 5.23858 3 8C3 10.7614 5.23858 13 8 13Z" fill="white"/>
<path fill-rule="evenodd" clip-rule="evenodd" d="M8 38C12.4183 38 16 34.4183 16 30C16 25.5817 12.4183 22 8 22C3.58172 22 0 25.5817 0 30C0 34.4183 3.58172 38 8 38ZM8 35C10.7614 35 13 32.7614 13 30C13 27.2386 10.7614 25 8 25C5.23858 25 3 27.2386 3 30C3 32.7614 5.23858 35 8 35Z" fill="white"/>
<path fill-rule="evenodd" clip-rule="evenodd" d="M8 60C12.4183 60 16 56.4183 16 52C16 47.5817 12.4183 44 8 44C3.58172 44 0 47.5817 0 52C0 56.4183 3.58172 60 8 60ZM8 57C10.7614 57 13 54.7614 13 52C13 49.2386 10.7614 47 8 47C5.23858 47 3 49.2386 3 52C3 54.7614 5.23858 57 8 57Z" fill="white"/>
</svg>
