<svg width="50" height="60" viewBox="0 0 50 60" fill="none" xmlns="http://www.w3.org/2000/svg">
<path d="M49.1436 41.7797L46.1538 39.9578V24.1406C46.1538 14.0713 37.6894 5.77652 26.9231 4.88543V1.75781C26.9231 0.787031 26.0621 0 25 0C23.938 0 23.0769 0.787031 23.0769 1.75781V4.88543C12.3106 5.77652 3.84615 14.0713 3.84615 24.1406V39.9578L0.85641 41.7797C0.321282 42.1057 0 42.6544 0 43.2422V50.2734C0 51.2442 0.861026 52.0312 1.92308 52.0312H14.5994C15.5021 56.5579 19.8206 60 25 60C30.1792 60 34.498 56.5579 35.4006 52.0312H48.0769C49.139 52.0312 50 51.2442 50 50.2734V43.2422C50 42.6544 49.6786 42.1056 49.1436 41.7797ZM25 56.4844C21.9501 56.4844 19.3673 54.6025 18.5437 52.0312H31.4564C30.6327 54.6025 28.0499 56.4844 25 56.4844ZM46.1538 48.5156C44.3691 48.5156 5.94692 48.5156 3.84615 48.5156V44.1829L6.8359 42.3609C7.3709 42.035 7.69231 41.4861 7.69231 40.8984V24.1406C7.69231 15.4173 15.4565 8.32031 25 8.32031C34.5435 8.32031 42.3077 15.4173 42.3077 24.1406V40.8984C42.3077 41.4862 42.6291 42.035 43.1641 42.3609L46.1538 44.1829V48.5156Z" fill="white"/>
</svg>
