<svg width="51" height="61" viewBox="0 0 51 61" fill="none" xmlns="http://www.w3.org/2000/svg">
<path fill-rule="evenodd" clip-rule="evenodd" d="M29.2133 37.6843C26.2906 39.6025 22.8463 40.7094 19.1586 40.7094C8.57759 40.7094 0 31.5963 0 20.3547C0 9.11312 8.57759 0 19.1586 0C29.7396 0 38.3172 9.11312 38.3172 20.3547C38.3172 26.0297 36.1312 31.1623 32.6051 34.8539L49.5083 56.2561C50.2655 57.2148 50.1401 58.651 49.2282 59.4639C48.3163 60.2768 46.9633 60.1586 46.2062 59.2L29.2133 37.6843ZM34.4854 20.3547C34.4854 29.348 27.6234 36.6385 19.1586 36.6385C10.6938 36.6385 3.83172 29.348 3.83172 20.3547C3.83172 11.3614 10.6938 4.07094 19.1586 4.07094C27.6234 4.07094 34.4854 11.3614 34.4854 20.3547Z" fill="white"/>
</svg>
