<svg width="60" height="60" viewBox="0 0 60 60" fill="none" xmlns="http://www.w3.org/2000/svg">
<g clip-path="url(#clip0)">
<path d="M57.4344 0.198104L0.969749 28.5476C0.399984 28.8337 0.0297884 29.4058 0.00236652 30.0426C-0.0250554 30.6795 0.294281 31.2814 0.837327 31.6154L14.0626 39.754V58.2422C14.0626 58.9987 14.5465 59.6702 15.264 59.9096C15.9817 60.149 16.7717 59.9026 17.2259 59.2978L26.2646 47.2629L46.5385 59.7392C47.0305 60.042 47.6401 60.0837 48.1688 59.8505C48.6975 59.6174 49.0779 59.1393 49.1863 58.5717L59.9656 2.09783C59.9692 2.07908 59.9726 2.06033 59.9756 2.04146C60.2062 0.617987 58.7128 -0.46049 57.4344 0.198104ZM15.7282 36.6514L5.36545 30.2743L46.7223 9.51006L15.7282 36.6514ZM17.5779 52.9749V39.7044L46.6927 14.2089C46.0532 15.0603 18.3394 51.961 17.5779 52.9749ZM46.2106 55.4098L28.3845 44.4399L55.092 8.87924L46.2106 55.4098Z" fill="white"/>
</g>
<defs>
<clipPath id="clip0">
<rect width="60" height="60" fill="white"/>
</clipPath>
</defs>
</svg>
