<svg width="28" height="60" viewBox="0 0 28 60" fill="none" xmlns="http://www.w3.org/2000/svg">
<path d="M28 32.612C28 31.5345 27.3232 30.6609 26.4883 30.6609C25.6534 30.6609 24.9766 31.5345 24.9766 32.612C24.9766 40.4237 20.0525 46.7791 14 46.7791C7.94754 46.7791 3.02341 40.4237 3.02341 32.612C3.02341 31.5345 2.34657 30.6609 1.51171 30.6609C0.676841 30.6609 0 31.5345 0 32.612C0 41.9162 5.47721 49.598 12.4883 50.5744V56.0978H8.76567C7.93081 56.0978 7.25397 56.9714 7.25397 58.0489C7.25397 59.1264 7.93081 60 8.76567 60H19.2345C20.0694 60 20.7462 59.1264 20.7462 58.0489C20.7462 56.9714 20.0694 56.0978 19.2345 56.0978H15.5119V50.5744C22.5228 49.598 28 41.9162 28 32.612Z" fill="white"/>
<path d="M14.0002 44.5142C18.7184 44.5142 22.5567 39.5603 22.5567 33.4707V11.0435C22.5567 4.95398 18.7184 0 14.0002 0C9.28211 0 5.44379 4.95398 5.44379 11.0435V33.4707C5.44379 39.5603 9.28211 44.5142 14.0002 44.5142ZM8.4672 11.0435C8.4672 7.10565 10.9492 3.9022 14.0002 3.9022C17.0513 3.9022 19.5333 7.10565 19.5333 11.0435V33.4707C19.5333 37.4086 17.0513 40.612 14.0002 40.612C10.9492 40.612 8.4672 37.4086 8.4672 33.4707V11.0435Z" fill="white"/>
</svg>
